<svg width="32" height="33" viewBox="0 0 32 33" fill="none" xmlns="http://www.w3.org/2000/svg">
<path d="M25.3334 3.16699H12C10.5294 3.16699 9.33337 4.36299 9.33337 5.83366V13.2817L3.05737 19.5577C2.87096 19.7441 2.74402 19.9817 2.6926 20.2403C2.64117 20.4989 2.66758 20.7669 2.76847 21.0105C2.86936 21.2541 3.04022 21.4623 3.25943 21.6089C3.47864 21.7554 3.73637 21.8336 4.00004 21.8337V28.5003C4.00004 28.8539 4.14052 29.1931 4.39057 29.4431C4.64061 29.6932 4.97975 29.8337 5.33337 29.8337H26.6667C27.0203 29.8337 27.3595 29.6932 27.6095 29.4431C27.8596 29.1931 28 28.8539 28 28.5003V5.83366C28 4.36299 26.804 3.16699 25.3334 3.16699ZM14.6667 27.167H6.66671V19.719L10.6667 15.719L14.6667 19.719V27.167ZM25.3334 27.167H17.3334V21.8337C17.5973 21.8342 17.8555 21.7564 18.0751 21.61C18.2948 21.4636 18.4659 21.2552 18.5669 21.0114C18.6679 20.7675 18.6942 20.4991 18.6424 20.2403C18.5906 19.9815 18.4631 19.7439 18.276 19.5577L12 13.2817V5.83366H25.3334V27.167Z" fill="white"/>
<path d="M14.6663 8.5H17.333V11.1667H14.6663V8.5ZM19.9997 8.5H22.6663V11.1667H19.9997V8.5ZM19.9997 13.8747H22.6663V16.5H19.9997V13.8747ZM19.9997 19.1667H22.6663V21.8333H19.9997V19.1667ZM9.33301 20.5H11.9997V23.1667H9.33301V20.5Z" fill="white"/>
</svg>
