<svg width="24" height="24" viewBox="0 0 24 24" fill="none" xmlns="http://www.w3.org/2000/svg">
<path d="M8.106 18.2467C5.298 16.0827 2 13.5417 2 9.13668C2 4.27368 7.5 0.824677 12 5.50068L14 7.49868C14.1422 7.63116 14.3302 7.70328 14.5245 7.69985C14.7188 7.69642 14.9042 7.61771 15.0416 7.4803C15.179 7.34289 15.2577 7.1575 15.2612 6.9632C15.2646 6.7689 15.1925 6.58085 15.06 6.43868L13.13 4.50568C17.369 1.40268 22 4.67468 22 9.13668C22 13.5417 18.702 16.0827 15.894 18.2467C15.602 18.4717 15.315 18.6917 15.038 18.9107C14 19.7287 13 20.4997 12 20.4997C11 20.4997 10 19.7297 8.962 18.9097C8.685 18.6917 8.398 18.4717 8.106 18.2467Z" fill="white"/>
</svg>
