<svg width="24" height="24" viewBox="0 0 24 24" fill="none" xmlns="http://www.w3.org/2000/svg">
<path opacity="0.5" d="M20.913 5.889C21.25 6.393 21.25 7.095 21.25 8.5V21.25H21.75C21.9489 21.25 22.1397 21.329 22.2803 21.4697C22.421 21.6103 22.5 21.8011 22.5 22C22.5 22.1989 22.421 22.3897 22.2803 22.5303C22.1397 22.671 21.9489 22.75 21.75 22.75H1.75C1.55109 22.75 1.36032 22.671 1.21967 22.5303C1.07902 22.3897 1 22.1989 1 22C1 21.8011 1.07902 21.6103 1.21967 21.4697C1.36032 21.329 1.55109 21.25 1.75 21.25H2.25V8.5C2.25 7.095 2.25 6.393 2.587 5.889C2.73296 5.67053 2.92053 5.48296 3.139 5.337C3.58 5.042 5.676 5.005 6.757 5.001C6.753 5.292 6.753 5.596 6.753 5.911V7.25H4.25C4.05109 7.25 3.86032 7.32902 3.71967 7.46967C3.57902 7.61032 3.5 7.80109 3.5 8C3.5 8.19891 3.57902 8.38968 3.71967 8.53033C3.86032 8.67098 4.05109 8.75 4.25 8.75H6.753V10.25H4.25C4.05109 10.25 3.86032 10.329 3.71967 10.4697C3.57902 10.6103 3.5 10.8011 3.5 11C3.5 11.1989 3.57902 11.3897 3.71967 11.5303C3.86032 11.671 4.05109 11.75 4.25 11.75H6.753V13.25H4.25C4.05109 13.25 3.86032 13.329 3.71967 13.4697C3.57902 13.6103 3.5 13.8011 3.5 14C3.5 14.1989 3.57902 14.3897 3.71967 14.5303C3.86032 14.671 4.05109 14.75 4.25 14.75H6.753V21.25H16.753V14.75H19.25C19.4489 14.75 19.6397 14.671 19.7803 14.5303C19.921 14.3897 20 14.1989 20 14C20 13.8011 19.921 13.6103 19.7803 13.4697C19.6397 13.329 19.4489 13.25 19.25 13.25H16.753V11.75H19.25C19.4489 11.75 19.6397 11.671 19.7803 11.5303C19.921 11.3897 20 11.1989 20 11C20 10.8011 19.921 10.6103 19.7803 10.4697C19.6397 10.329 19.4489 10.25 19.25 10.25H16.753V8.75H19.25C19.4489 8.75 19.6397 8.67098 19.7803 8.53033C19.921 8.38968 20 8.19891 20 8C20 7.80109 19.921 7.61032 19.7803 7.46967C19.6397 7.32902 19.4489 7.25 19.25 7.25H16.753V5.91C16.753 5.596 16.753 5.292 16.749 5C17.83 5.005 19.919 5.042 20.361 5.337C20.5795 5.48296 20.767 5.67053 20.913 5.889Z" fill="white"/>
<path fill-rule="evenodd" clip-rule="evenodd" d="M10.75 2H12.75C14.636 2 15.578 2 16.164 2.586C16.75 3.172 16.75 4.114 16.75 6V21.25H21.75C21.9489 21.25 22.1397 21.329 22.2803 21.4697C22.421 21.6103 22.5 21.8011 22.5 22C22.5 22.1989 22.421 22.3897 22.2803 22.5303C22.1397 22.671 21.9489 22.75 21.75 22.75H1.75C1.55109 22.75 1.36032 22.671 1.21967 22.5303C1.07902 22.3897 1 22.1989 1 22C1 21.8011 1.07902 21.6103 1.21967 21.4697C1.36032 21.329 1.55109 21.25 1.75 21.25H6.75V6C6.75 4.114 6.75 3.172 7.336 2.586C7.922 2 8.864 2 10.75 2ZM11.75 18.25C11.9489 18.25 12.1397 18.329 12.2803 18.4697C12.421 18.6103 12.5 18.8011 12.5 19V21.25H11V19C11 18.8011 11.079 18.6103 11.2197 18.4697C11.3603 18.329 11.5511 18.25 11.75 18.25ZM9.75 14C9.55109 14 9.36032 14.079 9.21967 14.2197C9.07902 14.3603 9 14.5511 9 14.75C9 14.9489 9.07902 15.1397 9.21967 15.2803C9.36032 15.421 9.55109 15.5 9.75 15.5H13.75C13.9489 15.5 14.1397 15.421 14.2803 15.2803C14.421 15.1397 14.5 14.9489 14.5 14.75C14.5 14.5511 14.421 14.3603 14.2803 14.2197C14.1397 14.079 13.9489 14 13.75 14H9.75ZM9 11.75C9 11.5511 9.07902 11.3603 9.21967 11.2197C9.36032 11.079 9.55109 11 9.75 11H13.75C13.9489 11 14.1397 11.079 14.2803 11.2197C14.421 11.3603 14.5 11.5511 14.5 11.75C14.5 11.9489 14.421 12.1397 14.2803 12.2803C14.1397 12.421 13.9489 12.5 13.75 12.5H9.75C9.55109 12.5 9.36032 12.421 9.21967 12.2803C9.07902 12.1397 9 11.9489 9 11.75ZM9.75 8.5C9.55109 8.5 9.36032 8.57902 9.21967 8.71967C9.07902 8.86032 9 9.05109 9 9.25C9 9.44891 9.07902 9.63968 9.21967 9.78033C9.36032 9.92098 9.55109 10 9.75 10H13.75C13.9489 10 14.1397 9.92098 14.2803 9.78033C14.421 9.63968 14.5 9.44891 14.5 9.25C14.5 9.05109 14.421 8.86032 14.2803 8.71967C14.1397 8.57902 13.9489 8.5 13.75 8.5H9.75ZM9 6.25C9 6.05109 9.07902 5.86032 9.21967 5.71967C9.36032 5.57902 9.55109 5.5 9.75 5.5H13.75C13.9489 5.5 14.1397 5.57902 14.2803 5.71967C14.421 5.86032 14.5 6.05109 14.5 6.25C14.5 6.44891 14.421 6.63968 14.2803 6.78033C14.1397 6.92098 13.9489 7 13.75 7H9.75C9.55109 7 9.36032 6.92098 9.21967 6.78033C9.07902 6.63968 9 6.44891 9 6.25Z" fill="white"/>
</svg>
