<svg width="25" height="24" viewBox="0 0 25 24" fill="none" xmlns="http://www.w3.org/2000/svg">
<path fill-rule="evenodd" clip-rule="evenodd" d="M12.5 22C18.023 22 22.5 17.523 22.5 12C22.5 6.477 18.023 2 12.5 2C6.977 2 2.5 6.477 2.5 12C2.5 17.523 6.977 22 12.5 22ZM14.53 8.47C14.6705 8.61063 14.7493 8.80125 14.7493 9C14.7493 9.19875 14.6705 9.38937 14.53 9.53L12.06 12L14.53 14.47C14.6037 14.5387 14.6628 14.6215 14.7038 14.7135C14.7448 14.8055 14.7668 14.9048 14.7686 15.0055C14.7704 15.1062 14.7518 15.2062 14.7141 15.2996C14.6764 15.393 14.6203 15.4778 14.549 15.549C14.4778 15.6203 14.393 15.6764 14.2996 15.7141C14.2062 15.7518 14.1062 15.7704 14.0055 15.7686C13.9048 15.7668 13.8055 15.7448 13.7135 15.7038C13.6215 15.6628 13.5387 15.6037 13.47 15.53L10.47 12.53C10.3295 12.3894 10.2507 12.1988 10.2507 12C10.2507 11.8012 10.3295 11.6106 10.47 11.47L13.47 8.47C13.6106 8.32955 13.8012 8.25066 14 8.25066C14.1988 8.25066 14.3894 8.32955 14.53 8.47Z" fill="white"/>
</svg>
