<svg width="25" height="24" viewBox="0 0 25 24" fill="none" xmlns="http://www.w3.org/2000/svg">
<path fill-rule="evenodd" clip-rule="evenodd" d="M12.5 22C18.023 22 22.5 17.523 22.5 12C22.5 6.477 18.023 2 12.5 2C6.977 2 2.5 6.477 2.5 12C2.5 17.523 6.977 22 12.5 22ZM10.47 8.47C10.6106 8.32955 10.8012 8.25066 11 8.25066C11.1988 8.25066 11.3894 8.32955 11.53 8.47L14.53 11.47C14.6705 11.6106 14.7493 11.8012 14.7493 12C14.7493 12.1988 14.6705 12.3894 14.53 12.53L11.53 15.53C11.4613 15.6037 11.3785 15.6628 11.2865 15.7038C11.1945 15.7448 11.0952 15.7668 10.9945 15.7686C10.8938 15.7704 10.7938 15.7518 10.7004 15.7141C10.607 15.6764 10.5222 15.6203 10.451 15.549C10.3797 15.4778 10.3236 15.393 10.2859 15.2996C10.2482 15.2062 10.2296 15.1062 10.2314 15.0055C10.2332 14.9048 10.2552 14.8055 10.2962 14.7135C10.3372 14.6215 10.3963 14.5387 10.47 14.47L12.94 12L10.47 9.53C10.3295 9.38937 10.2507 9.19875 10.2507 9C10.2507 8.80125 10.3295 8.61063 10.47 8.47Z" fill="white"/>
</svg>
