<svg width="24" height="24" viewBox="0 0 24 24" fill="none" xmlns="http://www.w3.org/2000/svg">
<path d="M10.0302 8.97015C9.88798 8.83767 9.69993 8.76555 9.50563 8.76898C9.31133 8.77241 9.12595 8.85112 8.98853 8.98853C8.85112 9.12595 8.77241 9.31133 8.76898 9.50563C8.76555 9.69993 8.83767 9.88798 8.97015 10.0302L10.9402 12.0002L8.97015 13.9702C8.89647 14.0388 8.83736 14.1216 8.79637 14.2136C8.75538 14.3056 8.73334 14.4049 8.73156 14.5056C8.72979 14.6063 8.74831 14.7064 8.78603 14.7998C8.82375 14.8931 8.8799 14.978 8.95112 15.0492C9.02233 15.1204 9.10717 15.1766 9.20056 15.2143C9.29394 15.252 9.39397 15.2705 9.49468 15.2687C9.59538 15.267 9.69469 15.2449 9.78669 15.2039C9.87869 15.1629 9.96149 15.1038 10.0302 15.0302L12.0002 13.0602L13.9702 15.0302C14.1123 15.1626 14.3004 15.2348 14.4947 15.2313C14.689 15.2279 14.8744 15.1492 15.0118 15.0118C15.1492 14.8744 15.2279 14.689 15.2313 14.4947C15.2348 14.3004 15.1626 14.1123 15.0302 13.9702L13.0602 12.0002L15.0302 10.0302C15.1038 9.96149 15.1629 9.87869 15.2039 9.78669C15.2449 9.69469 15.267 9.59538 15.2687 9.49468C15.2705 9.39397 15.252 9.29394 15.2143 9.20056C15.1766 9.10717 15.1204 9.02233 15.0492 8.95112C14.978 8.8799 14.8931 8.82375 14.7998 8.78603C14.7064 8.74831 14.6063 8.72979 14.5056 8.73156C14.4049 8.73334 14.3056 8.75538 14.2136 8.79637C14.1216 8.83736 14.0388 8.89647 13.9702 8.97015L12.0002 10.9402L10.0302 8.97015Z" fill="white"/>
<path fill-rule="evenodd" clip-rule="evenodd" d="M12 1.25C6.063 1.25 1.25 6.063 1.25 12C1.25 17.937 6.063 22.75 12 22.75C17.937 22.75 22.75 17.937 22.75 12C22.75 6.063 17.937 1.25 12 1.25ZM2.75 12C2.75 9.54675 3.72455 7.19397 5.45926 5.45926C7.19397 3.72455 9.54675 2.75 12 2.75C14.4533 2.75 16.806 3.72455 18.5407 5.45926C20.2754 7.19397 21.25 9.54675 21.25 12C21.25 14.4533 20.2754 16.806 18.5407 18.5407C16.806 20.2754 14.4533 21.25 12 21.25C9.54675 21.25 7.19397 20.2754 5.45926 18.5407C3.72455 16.806 2.75 14.4533 2.75 12Z" fill="white"/>
</svg>
