<svg width="24" height="25" viewBox="0 0 24 25" fill="none" xmlns="http://www.w3.org/2000/svg">
<path d="M19.0498 5.41006C18.133 4.48399 17.041 3.74973 15.8374 3.25011C14.6339 2.75049 13.3429 2.49552 12.0398 2.50006C6.5798 2.50006 2.1298 6.95006 2.1298 12.4101C2.1298 14.1601 2.5898 15.8601 3.4498 17.3601L2.0498 22.5001L7.2998 21.1201C8.7498 21.9101 10.3798 22.3301 12.0398 22.3301C17.4998 22.3301 21.9498 17.8801 21.9498 12.4201C21.9498 9.77006 20.9198 7.28006 19.0498 5.41006ZM12.0398 20.6501C10.5598 20.6501 9.1098 20.2501 7.8398 19.5001L7.5398 19.3201L4.4198 20.1401L5.2498 17.1001L5.0498 16.7901C4.22755 15.477 3.79094 13.9593 3.7898 12.4101C3.7898 7.87006 7.4898 4.17006 12.0298 4.17006C14.2298 4.17006 16.2998 5.03006 17.8498 6.59006C18.6173 7.35402 19.2255 8.26272 19.6392 9.26348C20.0529 10.2642 20.2638 11.3372 20.2598 12.4201C20.2798 16.9601 16.5798 20.6501 12.0398 20.6501ZM16.5598 14.4901C16.3098 14.3701 15.0898 13.7701 14.8698 13.6801C14.6398 13.6001 14.4798 13.5601 14.3098 13.8001C14.1398 14.0501 13.6698 14.6101 13.5298 14.7701C13.3898 14.9401 13.2398 14.9601 12.9898 14.8301C12.7398 14.7101 11.9398 14.4401 10.9998 13.6001C10.2598 12.9401 9.7698 12.1301 9.6198 11.8801C9.4798 11.6301 9.5998 11.5001 9.7298 11.3701C9.8398 11.2601 9.9798 11.0801 10.0998 10.9401C10.2198 10.8001 10.2698 10.6901 10.3498 10.5301C10.4298 10.3601 10.3898 10.2201 10.3298 10.1001C10.2698 9.98006 9.7698 8.76006 9.5698 8.26006C9.3698 7.78006 9.1598 7.84006 9.0098 7.83006H8.5298C8.3598 7.83006 8.0998 7.89006 7.8698 8.14006C7.6498 8.39006 7.0098 8.99006 7.0098 10.2101C7.0098 11.4301 7.89981 12.6101 8.0198 12.7701C8.1398 12.9401 9.7698 15.4401 12.2498 16.5101C12.8398 16.7701 13.2998 16.9201 13.6598 17.0301C14.2498 17.2201 14.7898 17.1901 15.2198 17.1301C15.6998 17.0601 16.6898 16.5301 16.8898 15.9501C17.0998 15.3701 17.0998 14.8801 17.0298 14.7701C16.9598 14.6601 16.8098 14.6101 16.5598 14.4901Z" fill="white"/>
</svg>
