<svg width="16" height="16" viewBox="0 0 16 16" fill="none" xmlns="http://www.w3.org/2000/svg">
<path d="M12.7 3.27305C12.0888 2.65566 11.3608 2.16616 10.5585 1.83308C9.75609 1.5 8.89544 1.33002 8.0267 1.33305C4.3867 1.33305 1.42003 4.29971 1.42003 7.93971C1.42003 9.10638 1.7267 10.2397 2.30003 11.2397L1.3667 14.6664L4.8667 13.7464C5.83337 14.273 6.92003 14.553 8.0267 14.553C11.6667 14.553 14.6334 11.5864 14.6334 7.94638C14.6334 6.17971 13.9467 4.51971 12.7 3.27305ZM8.0267 13.433C7.04003 13.433 6.07337 13.1664 5.2267 12.6664L5.0267 12.5464L2.9467 13.093L3.50003 11.0664L3.3667 10.8597C2.81853 9.98436 2.52746 8.97254 2.5267 7.93971C2.5267 4.91305 4.99337 2.44638 8.02003 2.44638C9.4867 2.44638 10.8667 3.01971 11.9 4.05971C12.4117 4.56902 12.8172 5.17482 13.093 5.842C13.3688 6.50917 13.5094 7.22445 13.5067 7.94638C13.52 10.973 11.0534 13.433 8.0267 13.433ZM11.04 9.32638C10.8734 9.24638 10.06 8.84638 9.91337 8.78638C9.76003 8.73305 9.65337 8.70638 9.54003 8.86638C9.4267 9.03305 9.11337 9.40638 9.02003 9.51305C8.9267 9.62638 8.8267 9.63971 8.66003 9.55305C8.49337 9.47305 7.96003 9.29305 7.33337 8.73305C6.84003 8.29305 6.51337 7.75305 6.41337 7.58638C6.32003 7.41971 6.40003 7.33305 6.4867 7.24638C6.56003 7.17305 6.65337 7.05305 6.73337 6.95971C6.81337 6.86638 6.8467 6.79305 6.90003 6.68638C6.95337 6.57305 6.9267 6.47971 6.8867 6.39971C6.8467 6.31971 6.51337 5.50638 6.38003 5.17305C6.2467 4.85305 6.1067 4.89305 6.0067 4.88638H5.6867C5.57337 4.88638 5.40003 4.92638 5.2467 5.09305C5.10003 5.25971 4.67337 5.65971 4.67337 6.47305C4.67337 7.28638 5.2667 8.07305 5.3467 8.17971C5.4267 8.29305 6.51337 9.95971 8.1667 10.673C8.56003 10.8464 8.8667 10.9464 9.1067 11.0197C9.50003 11.1464 9.86003 11.1264 10.1467 11.0864C10.4667 11.0397 11.1267 10.6864 11.26 10.2997C11.4 9.91305 11.4 9.58638 11.3534 9.51305C11.3067 9.43971 11.2067 9.40638 11.04 9.32638Z" fill="white"/>
</svg>
