<svg width="18" height="11" viewBox="0 0 18 11" fill="none" xmlns="http://www.w3.org/2000/svg">
<path fill-rule="evenodd" clip-rule="evenodd" d="M16.3389 0.167969H15.3389C14.7866 0.167969 14.3389 0.615684 14.3389 1.16797V9.83464C14.3389 10.3869 14.7866 10.8346 15.3389 10.8346H16.3389C16.8912 10.8346 17.3389 10.3869 17.3389 9.83464V1.16797C17.3389 0.615684 16.8912 0.167969 16.3389 0.167969ZM10.6722 2.5013H11.6722C12.2245 2.5013 12.6722 2.94902 12.6722 3.5013V9.83464C12.6722 10.3869 12.2245 10.8346 11.6722 10.8346H10.6722C10.1199 10.8346 9.6722 10.3869 9.6722 9.83464V3.5013C9.6722 2.94902 10.1199 2.5013 10.6722 2.5013ZM7.00553 4.83464H6.00553C5.45325 4.83464 5.00553 5.28235 5.00553 5.83464V9.83463C5.00553 10.3869 5.45325 10.8346 6.00553 10.8346H7.00553C7.55782 10.8346 8.00553 10.3869 8.00553 9.83463V5.83464C8.00553 5.28235 7.55782 4.83464 7.00553 4.83464ZM2.33887 6.83464H1.33887C0.786582 6.83464 0.338867 7.28235 0.338867 7.83464V9.83463C0.338867 10.3869 0.786582 10.8346 1.33887 10.8346H2.33887C2.89115 10.8346 3.33887 10.3869 3.33887 9.83463V7.83464C3.33887 7.28235 2.89115 6.83464 2.33887 6.83464Z" fill="white"/>
</svg>
