<svg width="72" height="64" viewBox="0 0 72 64" fill="none" xmlns="http://www.w3.org/2000/svg">
<path d="M0 8C0 3.58172 3.58172 0 8 0H64C68.4183 0 72 3.58172 72 8V56C72 60.4183 68.4183 64 64 64H8C3.58172 64 0 60.4183 0 56V8Z" fill="white"/>
<path opacity="0.5" d="M24.52 50.7759H24C22.114 50.7759 21.172 50.7759 20.586 50.1899C20 49.6079 20 48.6639 20 46.7779V44.5539C20 43.5179 20 42.9999 20.266 42.5359C20.532 42.0739 20.934 41.8399 21.738 41.3719C27.03 38.2939 34.544 36.5619 39.558 39.5519C39.894 39.7539 40.198 39.9979 40.458 40.2879C40.7266 40.5823 40.9335 40.9275 41.0665 41.3032C41.1996 41.6788 41.256 42.0773 41.2325 42.4751C41.209 42.8729 41.1061 43.262 40.9298 43.6194C40.7535 43.9768 40.5074 44.2952 40.206 44.5559C39.9656 44.7844 39.6721 44.9494 39.352 45.0359C39.592 45.0079 39.822 44.9759 40.042 44.9419C41.864 44.6519 43.394 43.6759 44.794 42.6179L48.41 39.8879C49.0551 39.4187 49.8323 39.1659 50.63 39.1659C51.4277 39.1659 52.2049 39.4187 52.85 39.8879C53.996 40.7539 54.348 42.1799 53.622 43.3439C52.776 44.6999 51.584 46.4339 50.44 47.4939C49.294 48.5539 47.588 49.5019 46.196 50.1739C44.652 50.9199 42.948 51.3479 41.214 51.6299C37.698 52.1979 34.034 52.1099 30.554 51.3939C28.5686 50.9857 26.547 50.7773 24.52 50.7759Z" fill="#004F4A"/>
<path d="M33.7216 14.726C34.7356 12.908 35.2416 12 35.9996 12C36.7576 12 37.2636 12.908 38.2776 14.726L38.5376 15.196C38.8276 15.714 38.9716 15.972 39.1956 16.142C39.4196 16.312 39.6996 16.376 40.2596 16.502L40.7676 16.618C42.7356 17.062 43.7196 17.286 43.9536 18.038C44.1876 18.79 43.5176 19.576 42.1756 21.144L41.8276 21.55C41.4476 21.996 41.2576 22.218 41.1716 22.494C41.0856 22.77 41.1136 23.068 41.1716 23.662L41.2236 24.202C41.4276 26.296 41.5276 27.342 40.9156 27.808C40.3036 28.274 39.3816 27.848 37.5396 27L37.0616 26.78C36.5396 26.54 36.2776 26.42 35.9996 26.42C35.7216 26.42 35.4596 26.54 34.9376 26.78L34.4596 27C32.6196 27.85 31.6956 28.274 31.0836 27.808C30.4716 27.342 30.5716 26.296 30.7756 24.204L30.8276 23.662C30.8856 23.068 30.9136 22.77 30.8276 22.494C30.7416 22.218 30.5516 21.994 30.1716 21.55L29.8236 21.144C28.4836 19.576 27.8116 18.79 28.0456 18.038C28.2796 17.286 29.2636 17.062 31.2316 16.618L31.7396 16.502C32.2996 16.376 32.5796 16.312 32.8036 16.142C33.0276 15.972 33.1716 15.714 33.4596 15.196L33.7216 14.726ZM50.8596 23.364C51.3676 22.454 51.6196 22 51.9996 22C52.3796 22 52.6316 22.454 53.1396 23.364L53.2696 23.598C53.4136 23.858 53.4856 23.986 53.5976 24.072C53.7096 24.156 53.8496 24.188 54.1296 24.252L54.3836 24.308C55.3676 24.532 55.8596 24.642 55.9756 25.02C56.0936 25.396 55.7576 25.788 55.0876 26.572L54.9136 26.774C54.7236 26.998 54.6276 27.11 54.5856 27.248C54.5416 27.384 54.5576 27.534 54.5856 27.832L54.6116 28.102C54.7116 29.148 54.7636 29.672 54.4576 29.904C54.1516 30.136 53.6916 29.924 52.7696 29.5L52.5296 29.39C52.2696 29.27 52.1376 29.21 51.9996 29.21C51.8596 29.21 51.7296 29.27 51.4676 29.39L51.2296 29.5C50.3096 29.924 49.8496 30.136 49.5416 29.904C49.2356 29.672 49.2856 29.148 49.3876 28.102L49.4136 27.832C49.4416 27.532 49.4576 27.384 49.4136 27.248C49.3716 27.108 49.2756 26.998 49.0856 26.774L48.9116 26.572C48.2416 25.788 47.9056 25.396 48.0236 25.02C48.1396 24.642 48.6316 24.532 49.6156 24.308L49.8696 24.252C50.1496 24.188 50.2896 24.156 50.4016 24.072C50.5136 23.986 50.5856 23.856 50.7296 23.598L50.8596 23.364ZM18.8596 23.364C19.3696 22.454 19.6196 22 19.9996 22C20.3796 22 20.6316 22.454 21.1396 23.364L21.2696 23.598C21.4136 23.858 21.4856 23.986 21.5976 24.072C21.7096 24.156 21.8496 24.188 22.1296 24.252L22.3836 24.308C23.3676 24.532 23.8596 24.642 23.9776 25.02C24.0936 25.396 23.7576 25.788 23.0876 26.572L22.9136 26.774C22.7236 26.998 22.6276 27.11 22.5856 27.248C22.5416 27.384 22.5576 27.534 22.5856 27.832L22.6116 28.102C22.7116 29.148 22.7636 29.672 22.4576 29.904C22.1516 30.136 21.6896 29.924 20.7696 29.5L20.5296 29.39C20.2696 29.27 20.1376 29.21 19.9996 29.21C19.8596 29.21 19.7296 29.27 19.4676 29.39L19.2296 29.5C18.3096 29.924 17.8496 30.136 17.5416 29.904C17.2356 29.672 17.2856 29.148 17.3876 28.102L17.4136 27.832C17.4416 27.532 17.4576 27.384 17.4136 27.248C17.3716 27.108 17.2756 26.998 17.0856 26.774L16.9116 26.572C16.2416 25.788 15.9056 25.396 16.0216 25.02C16.1396 24.642 16.6316 24.532 17.6156 24.308L17.8696 24.252C18.1496 24.188 18.2896 24.156 18.4016 24.072C18.5136 23.986 18.5856 23.856 18.7296 23.598L18.8596 23.364Z" fill="#004F4A"/>
</svg>
