<svg width="49" height="48" viewBox="0 0 49 48" fill="none" xmlns="http://www.w3.org/2000/svg">
<path opacity="0.5" d="M12.853 42.7759H12.333C10.447 42.7759 9.50501 42.7759 8.91901 42.1899C8.33301 41.6079 8.33301 40.6639 8.33301 38.7779V36.5539C8.33301 35.5179 8.33301 34.9999 8.59901 34.5359C8.86501 34.0739 9.26701 33.8399 10.071 33.3719C15.363 30.2939 22.877 28.5619 27.891 31.5519C28.227 31.7539 28.531 31.9979 28.791 32.2879C29.0596 32.5823 29.2665 32.9275 29.3995 33.3032C29.5326 33.6788 29.589 34.0773 29.5655 34.4751C29.542 34.8729 29.4391 35.262 29.2628 35.6194C29.0865 35.9768 28.8404 36.2952 28.539 36.5559C28.2986 36.7844 28.0051 36.9494 27.685 37.0359C27.925 37.0079 28.155 36.9759 28.375 36.9419C30.197 36.6519 31.727 35.6759 33.127 34.6179L36.743 31.8879C37.3881 31.4187 38.1653 31.1659 38.963 31.1659C39.7607 31.1659 40.5379 31.4187 41.183 31.8879C42.329 32.7539 42.681 34.1799 41.955 35.3439C41.109 36.6999 39.917 38.4339 38.773 39.4939C37.627 40.5539 35.921 41.5019 34.529 42.1739C32.985 42.9199 31.281 43.3479 29.547 43.6299C26.031 44.1979 22.367 44.1099 18.887 43.3939C16.9016 42.9857 14.88 42.7773 12.853 42.7759Z" fill="white"/>
<path d="M22.0551 6.726C23.0691 4.908 23.5751 4 24.3331 4C25.0911 4 25.5971 4.908 26.6111 6.726L26.8711 7.196C27.1611 7.714 27.3051 7.972 27.5291 8.142C27.7531 8.312 28.0331 8.376 28.5931 8.502L29.1011 8.618C31.0691 9.062 32.0531 9.286 32.2871 10.038C32.5211 10.79 31.8511 11.576 30.5091 13.144L30.1611 13.55C29.7811 13.996 29.5911 14.218 29.5051 14.494C29.4191 14.77 29.4471 15.068 29.5051 15.662L29.5571 16.202C29.7611 18.296 29.8611 19.342 29.2491 19.808C28.6371 20.274 27.7151 19.848 25.8731 19L25.3951 18.78C24.8731 18.54 24.6111 18.42 24.3331 18.42C24.0551 18.42 23.7931 18.54 23.2711 18.78L22.7931 19C20.9531 19.85 20.0291 20.274 19.4171 19.808C18.8051 19.342 18.9051 18.296 19.1091 16.204L19.1611 15.662C19.2191 15.068 19.2471 14.77 19.1611 14.494C19.0751 14.218 18.8851 13.994 18.5051 13.55L18.1571 13.144C16.8171 11.576 16.1451 10.79 16.3791 10.038C16.6131 9.286 17.5971 9.062 19.5651 8.618L20.0731 8.502C20.6331 8.376 20.9131 8.312 21.1371 8.142C21.3611 7.972 21.5051 7.714 21.7931 7.196L22.0551 6.726ZM39.1931 15.364C39.7011 14.454 39.9531 14 40.3331 14C40.7131 14 40.9651 14.454 41.4731 15.364L41.6031 15.598C41.7471 15.858 41.8191 15.986 41.9311 16.072C42.0431 16.156 42.1831 16.188 42.4631 16.252L42.7171 16.308C43.7011 16.532 44.1931 16.642 44.3091 17.02C44.4271 17.396 44.0911 17.788 43.4211 18.572L43.2471 18.774C43.0571 18.998 42.9611 19.11 42.9191 19.248C42.8751 19.384 42.8911 19.534 42.9191 19.832L42.9451 20.102C43.0451 21.148 43.0971 21.672 42.7911 21.904C42.4851 22.136 42.0251 21.924 41.1031 21.5L40.8631 21.39C40.6031 21.27 40.4711 21.21 40.3331 21.21C40.1931 21.21 40.0631 21.27 39.8011 21.39L39.5631 21.5C38.6431 21.924 38.1831 22.136 37.8751 21.904C37.5691 21.672 37.6191 21.148 37.7211 20.102L37.7471 19.832C37.7751 19.532 37.7911 19.384 37.7471 19.248C37.7051 19.108 37.6091 18.998 37.4191 18.774L37.2451 18.572C36.5751 17.788 36.2391 17.396 36.3571 17.02C36.4731 16.642 36.9651 16.532 37.9491 16.308L38.2031 16.252C38.4831 16.188 38.6231 16.156 38.7351 16.072C38.8471 15.986 38.9191 15.856 39.0631 15.598L39.1931 15.364ZM7.1931 15.364C7.7031 14.454 7.9531 14 8.3331 14C8.7131 14 8.9651 14.454 9.4731 15.364L9.6031 15.598C9.7471 15.858 9.8191 15.986 9.9311 16.072C10.0431 16.156 10.1831 16.188 10.4631 16.252L10.7171 16.308C11.7011 16.532 12.1931 16.642 12.3111 17.02C12.4271 17.396 12.0911 17.788 11.4211 18.572L11.2471 18.774C11.0571 18.998 10.9611 19.11 10.9191 19.248C10.8751 19.384 10.8911 19.534 10.9191 19.832L10.9451 20.102C11.0451 21.148 11.0971 21.672 10.7911 21.904C10.4851 22.136 10.0231 21.924 9.1031 21.5L8.8631 21.39C8.6031 21.27 8.4711 21.21 8.3331 21.21C8.1931 21.21 8.0631 21.27 7.8011 21.39L7.5631 21.5C6.6431 21.924 6.1831 22.136 5.8751 21.904C5.5691 21.672 5.6191 21.148 5.7211 20.102L5.7471 19.832C5.7751 19.532 5.7911 19.384 5.7471 19.248C5.7051 19.108 5.6091 18.998 5.4191 18.774L5.2451 18.572C4.5751 17.788 4.2391 17.396 4.3551 17.02C4.4731 16.642 4.9651 16.532 5.9491 16.308L6.2031 16.252C6.4831 16.188 6.6231 16.156 6.7351 16.072C6.8471 15.986 6.9191 15.856 7.0631 15.598L7.1931 15.364Z" fill="white"/>
</svg>
