<svg width="49" height="48" viewBox="0 0 49 48" fill="none" xmlns="http://www.w3.org/2000/svg">
<path fill-rule="evenodd" clip-rule="evenodd" d="M32.7742 9.45551L36.4342 13.1155C41.8122 18.4955 44.5002 21.1835 44.5002 24.5235C44.5002 27.8655 41.8122 30.5535 36.4342 35.9315C31.0542 41.3115 28.3662 43.9995 25.0242 43.9995C21.6842 43.9995 18.9942 41.3115 13.6162 35.9335L9.95622 32.2735C6.86622 29.1815 5.32022 27.6375 4.74622 25.6315C4.17022 23.6255 4.66222 21.4955 5.64622 17.2375L6.21222 14.7815C7.03822 11.1975 7.45222 9.40551 8.67822 8.17751C9.90622 6.95151 11.6982 6.53751 15.2822 5.71151L17.7382 5.14351C21.9982 4.16151 24.1262 3.66951 26.1322 4.24351C28.1382 4.81951 29.6842 6.36551 32.7742 9.45551ZM22.7922 28.6555C21.4462 27.3115 21.4562 25.3795 22.2622 23.8495C22.0627 23.5613 21.9704 23.2123 22.0014 22.8631C22.0323 22.514 22.1846 22.1867 22.4318 21.9381C22.6789 21.6895 23.0054 21.5353 23.3544 21.5023C23.7033 21.4694 24.0529 21.5596 24.3422 21.7575C25.0222 21.3975 25.7682 21.2055 26.5122 21.2135C26.91 21.2172 27.2901 21.3788 27.5688 21.6628C27.8475 21.9467 28.0019 22.3297 27.9982 22.7275C27.9945 23.1253 27.8329 23.5054 27.549 23.7841C27.2651 24.0628 26.882 24.2172 26.4842 24.2135C26.0211 24.2306 25.5835 24.4297 25.2662 24.7675C24.4922 25.5415 24.6942 26.3175 24.9122 26.5355C25.1322 26.7535 25.9062 26.9555 26.6802 26.1815C28.2482 24.6135 30.9562 24.0935 32.6902 25.8275C34.0362 27.1735 34.0262 29.1055 33.2202 30.6355C33.4185 30.9238 33.5098 31.2723 33.4782 31.6208C33.4467 31.9692 33.2943 32.2957 33.0475 32.5437C32.8007 32.7917 32.475 32.9456 32.1267 32.9788C31.7784 33.012 31.4294 32.9224 31.1402 32.7255C30.2427 33.2178 29.2017 33.3819 28.1962 33.1895C27.8064 33.1094 27.4643 32.8777 27.2452 32.5454C27.0262 32.2131 26.9481 31.8074 27.0282 31.4175C27.1083 31.0276 27.34 30.6856 27.6723 30.4665C28.0046 30.2475 28.4104 30.1694 28.8002 30.2495C29.1542 30.3235 29.7262 30.2075 30.2162 29.7175C30.9902 28.9415 30.7882 28.1675 30.5702 27.9495C30.3502 27.7315 29.5762 27.5295 28.8022 28.3035C27.2342 29.8715 24.5262 30.3915 22.7922 28.6555ZM20.5402 20.5855C20.9116 20.214 21.2062 19.773 21.4071 19.2876C21.608 18.8023 21.7114 18.2821 21.7113 17.7568C21.7112 17.2315 21.6077 16.7114 21.4066 16.2261C21.2055 15.7408 20.9107 15.2999 20.5392 14.9285C20.1677 14.5571 19.7267 14.2626 19.2413 14.0616C18.756 13.8607 18.2358 13.7573 17.7105 13.7574C17.1852 13.7575 16.6651 13.8611 16.1798 14.0622C15.6945 14.2633 15.2536 14.558 14.8822 14.9295C14.1322 15.6798 13.7109 16.6973 13.7111 17.7582C13.7113 18.8191 14.1329 19.8365 14.8832 20.5865C15.6335 21.3365 16.651 21.7578 17.7119 21.7576C18.7728 21.7574 19.7902 21.3358 20.5402 20.5855Z" fill="white"/>
</svg>
