<svg width="48" height="48" viewBox="0 0 48 48" fill="none" xmlns="http://www.w3.org/2000/svg">
<path fill-rule="evenodd" clip-rule="evenodd" d="M6.756 10.164C6 11.24 6 14.44 6 20.834V23.982C6 35.258 14.478 40.732 19.798 43.054C21.24 43.684 21.962 44 24 44C26.04 44 26.76 43.684 28.202 43.054C33.522 40.73 42 35.26 42 23.982V20.834C42 14.438 42 11.24 41.244 10.164C40.49 9.09 37.484 8.06 31.47 6.002L30.324 5.61C27.19 4.536 25.624 4 24 4C22.378 4 20.81 4.536 17.676 5.61L16.53 6C10.516 8.06 7.51 9.09 6.756 10.164ZM27 30C27 30.5304 26.7893 31.0391 26.4142 31.4142C26.0391 31.7893 25.5304 32 25 32H23C22.4696 32 21.9609 31.7893 21.5858 31.4142C21.2107 31.0391 21 30.5304 21 30V27.198C19.8537 26.539 18.9572 25.5197 18.4501 24.2986C17.9429 23.0775 17.8534 21.723 18.1956 20.4458C18.5378 19.1686 19.2924 18.0403 20.3421 17.2363C21.3918 16.4323 22.6778 15.9976 24 16C25.3214 15.9993 26.6061 16.4348 27.6546 17.239C28.7031 18.0431 29.4569 19.1709 29.7988 20.4473C30.1408 21.7237 30.0518 23.0773 29.5457 24.2979C29.0396 25.5186 28.1448 26.538 27 27.198V30Z" fill="white"/>
</svg>
