<svg width="48" height="48" viewBox="0 0 48 48" fill="none" xmlns="http://www.w3.org/2000/svg">
<path d="M14 9.66046C14 12.7545 17.452 16.0165 20.3 18.1805C21.898 19.3925 22.696 20.0005 24 20.0005C25.304 20.0005 26.102 19.3925 27.7 18.1805C30.548 16.0145 34 12.7525 34 9.66046C34 4.08046 28.5 1.99446 24 6.30646C19.5 1.99446 14 4.08046 14 9.66046Z" fill="white"/>
<path opacity="0.5" d="M12.52 42.7759H12C10.114 42.7759 9.172 42.7759 8.586 42.1899C8 41.6079 8 40.6639 8 38.7779V36.5539C8 35.5179 8 34.9999 8.266 34.5359C8.532 34.0739 8.934 33.8399 9.738 33.3719C15.03 30.2939 22.544 28.5619 27.558 31.5519C27.894 31.7539 28.198 31.9979 28.458 32.2879C28.7266 32.5823 28.9335 32.9275 29.0665 33.3032C29.1996 33.6788 29.256 34.0773 29.2325 34.4751C29.209 34.8729 29.1061 35.262 28.9298 35.6194C28.7535 35.9768 28.5074 36.2952 28.206 36.5559C27.9656 36.7844 27.6721 36.9494 27.352 37.0359C27.592 37.0079 27.822 36.9759 28.042 36.9419C29.864 36.6519 31.394 35.6759 32.794 34.6179L36.41 31.8879C37.0551 31.4187 37.8323 31.1659 38.63 31.1659C39.4277 31.1659 40.2049 31.4187 40.85 31.8879C41.996 32.7539 42.348 34.1799 41.622 35.3439C40.776 36.6999 39.584 38.4339 38.44 39.4939C37.294 40.5539 35.588 41.5019 34.196 42.1739C32.652 42.9199 30.948 43.3479 29.214 43.6299C25.698 44.1979 22.034 44.1099 18.554 43.3939C16.5686 42.9857 14.547 42.7773 12.52 42.7759Z" fill="white"/>
</svg>
