<svg width="48" height="48" viewBox="0 0 48 48" fill="none" xmlns="http://www.w3.org/2000/svg">
<path d="M36 21.706V12H28V21.706C28 22.286 28 22.576 28.19 22.694C28.38 22.81 28.638 22.68 29.158 22.422L31.642 21.178C31.818 21.092 31.906 21.048 32 21.048C32.094 21.048 32.182 21.092 32.358 21.178L34.842 22.422C35.362 22.682 35.622 22.81 35.81 22.694C36 22.574 36 22.286 36 21.706Z" fill="white"/>
<path opacity="0.5" d="M4 13.9C4 12.134 4 11.252 4.14 10.516C4.43845 8.93568 5.20627 7.482 6.3433 6.34461C7.48033 5.20723 8.93377 4.43894 10.514 4.14C11.252 4 12.136 4 13.9 4C14.672 4 15.06 4 15.432 4.034C17.0341 4.18446 18.5536 4.81456 19.792 5.842C20.08 6.08 20.352 6.352 20.9 6.9L22 8C23.632 9.632 24.448 10.448 25.424 10.99C25.9604 11.289 26.5295 11.5252 27.12 11.694C28.196 12 29.35 12 31.656 12H32.404C37.668 12 40.302 12 42.012 13.54C42.17 13.68 42.32 13.83 42.46 13.988C44 15.698 44 18.332 44 23.596V28C44 35.542 44 39.314 41.656 41.656C39.314 44 35.542 44 28 44H20C12.458 44 8.686 44 6.344 41.656C4 39.314 4 35.542 4 28V13.9Z" fill="white"/>
</svg>
