<svg width="49" height="48" viewBox="0 0 49 48" fill="none" xmlns="http://www.w3.org/2000/svg">
<path fill-rule="evenodd" clip-rule="evenodd" d="M7.4225 10.164C6.6665 11.24 6.6665 14.44 6.6665 20.834V23.982C6.6665 35.258 15.1445 40.732 20.4645 43.054C21.9065 43.684 22.6285 44 24.6665 44C26.7065 44 27.4265 43.684 28.8685 43.054C34.1885 40.73 42.6665 35.26 42.6665 23.982V20.834C42.6665 14.438 42.6665 11.24 41.9105 10.164C41.1565 9.09 38.1505 8.06 32.1365 6.002L30.9905 5.61C27.8565 4.536 26.2905 4 24.6665 4C23.0445 4 21.4765 4.536 18.3425 5.61L17.1965 6C11.1825 8.06 8.1765 9.09 7.4225 10.164ZM27.6665 30C27.6665 30.5304 27.4558 31.0391 27.0807 31.4142C26.7056 31.7893 26.1969 32 25.6665 32H23.6665C23.1361 32 22.6274 31.7893 22.2523 31.4142C21.8772 31.0391 21.6665 30.5304 21.6665 30V27.198C20.5202 26.539 19.6237 25.5197 19.1166 24.2986C18.6094 23.0775 18.5199 21.723 18.8621 20.4458C19.2043 19.1686 19.9589 18.0403 21.0086 17.2363C22.0583 16.4323 23.3443 15.9976 24.6665 16C25.9879 15.9993 27.2726 16.4348 28.3211 17.239C29.3696 18.0431 30.1234 19.1709 30.4653 20.4473C30.8073 21.7237 30.7183 23.0773 30.2122 24.2979C29.7062 25.5186 28.8113 26.538 27.6665 27.198V30Z" fill="white"/>
</svg>
