<svg width="49" height="48" viewBox="0 0 49 48" fill="none" xmlns="http://www.w3.org/2000/svg">
<path opacity="0.5" d="M12.8533 42.7759H12.3333C10.4473 42.7759 9.50525 42.7759 8.91925 42.1899C8.33325 41.6079 8.33325 40.6639 8.33325 38.7779V36.5539C8.33325 35.5179 8.33325 34.9999 8.59925 34.5359C8.86525 34.0739 9.26725 33.8399 10.0713 33.3719C15.3633 30.2939 22.8773 28.5619 27.8913 31.5519C28.2273 31.7539 28.5313 31.9979 28.7913 32.2879C29.0599 32.5823 29.2668 32.9275 29.3998 33.3032C29.5328 33.6788 29.5892 34.0773 29.5658 34.4751C29.5423 34.8729 29.4393 35.262 29.263 35.6194C29.0867 35.9768 28.8406 36.2952 28.5393 36.5559C28.2989 36.7844 28.0054 36.9494 27.6853 37.0359C27.9253 37.0079 28.1553 36.9759 28.3753 36.9419C30.1973 36.6519 31.7273 35.6759 33.1273 34.6179L36.7433 31.8879C37.3883 31.4187 38.1655 31.1659 38.9633 31.1659C39.761 31.1659 40.5382 31.4187 41.1833 31.8879C42.3293 32.7539 42.6813 34.1799 41.9553 35.3439C41.1093 36.6999 39.9173 38.4339 38.7733 39.4939C37.6273 40.5539 35.9213 41.5019 34.5293 42.1739C32.9853 42.9199 31.2813 43.3479 29.5473 43.6299C26.0313 44.1979 22.3673 44.1099 18.8873 43.3939C16.9018 42.9857 14.8802 42.7773 12.8533 42.7759Z" fill="white"/>
<path d="M22.0552 6.726C23.0692 4.908 23.5752 4 24.3332 4C25.0912 4 25.5972 4.908 26.6112 6.726L26.8712 7.196C27.1612 7.714 27.3052 7.972 27.5292 8.142C27.7532 8.312 28.0332 8.376 28.5932 8.502L29.1012 8.618C31.0692 9.062 32.0532 9.286 32.2872 10.038C32.5212 10.79 31.8512 11.576 30.5092 13.144L30.1612 13.55C29.7812 13.996 29.5912 14.218 29.5052 14.494C29.4192 14.77 29.4472 15.068 29.5052 15.662L29.5572 16.202C29.7612 18.296 29.8612 19.342 29.2492 19.808C28.6372 20.274 27.7152 19.848 25.8732 19L25.3952 18.78C24.8732 18.54 24.6112 18.42 24.3332 18.42C24.0552 18.42 23.7932 18.54 23.2712 18.78L22.7932 19C20.9532 19.85 20.0292 20.274 19.4172 19.808C18.8052 19.342 18.9052 18.296 19.1092 16.204L19.1612 15.662C19.2192 15.068 19.2472 14.77 19.1612 14.494C19.0752 14.218 18.8852 13.994 18.5052 13.55L18.1572 13.144C16.8172 11.576 16.1452 10.79 16.3792 10.038C16.6132 9.286 17.5972 9.062 19.5652 8.618L20.0732 8.502C20.6332 8.376 20.9132 8.312 21.1372 8.142C21.3612 7.972 21.5052 7.714 21.7932 7.196L22.0552 6.726ZM39.1932 15.364C39.7012 14.454 39.9532 14 40.3332 14C40.7132 14 40.9652 14.454 41.4732 15.364L41.6032 15.598C41.7472 15.858 41.8192 15.986 41.9312 16.072C42.0432 16.156 42.1832 16.188 42.4632 16.252L42.7172 16.308C43.7012 16.532 44.1932 16.642 44.3092 17.02C44.4272 17.396 44.0912 17.788 43.4212 18.572L43.2472 18.774C43.0572 18.998 42.9612 19.11 42.9192 19.248C42.8752 19.384 42.8912 19.534 42.9192 19.832L42.9452 20.102C43.0452 21.148 43.0972 21.672 42.7912 21.904C42.4852 22.136 42.0252 21.924 41.1032 21.5L40.8632 21.39C40.6032 21.27 40.4712 21.21 40.3332 21.21C40.1932 21.21 40.0632 21.27 39.8012 21.39L39.5632 21.5C38.6432 21.924 38.1832 22.136 37.8752 21.904C37.5692 21.672 37.6192 21.148 37.7212 20.102L37.7472 19.832C37.7752 19.532 37.7912 19.384 37.7472 19.248C37.7052 19.108 37.6092 18.998 37.4192 18.774L37.2452 18.572C36.5752 17.788 36.2392 17.396 36.3572 17.02C36.4732 16.642 36.9652 16.532 37.9492 16.308L38.2032 16.252C38.4832 16.188 38.6232 16.156 38.7352 16.072C38.8472 15.986 38.9192 15.856 39.0632 15.598L39.1932 15.364ZM7.19322 15.364C7.70322 14.454 7.95322 14 8.33322 14C8.71322 14 8.96522 14.454 9.47322 15.364L9.60322 15.598C9.74722 15.858 9.81922 15.986 9.93122 16.072C10.0432 16.156 10.1832 16.188 10.4632 16.252L10.7172 16.308C11.7012 16.532 12.1932 16.642 12.3112 17.02C12.4272 17.396 12.0912 17.788 11.4212 18.572L11.2472 18.774C11.0572 18.998 10.9612 19.11 10.9192 19.248C10.8752 19.384 10.8912 19.534 10.9192 19.832L10.9452 20.102C11.0452 21.148 11.0972 21.672 10.7912 21.904C10.4852 22.136 10.0232 21.924 9.10322 21.5L8.86322 21.39C8.60322 21.27 8.47122 21.21 8.33322 21.21C8.19322 21.21 8.06322 21.27 7.80122 21.39L7.56322 21.5C6.64322 21.924 6.18322 22.136 5.87522 21.904C5.56922 21.672 5.61922 21.148 5.72122 20.102L5.74722 19.832C5.77522 19.532 5.79122 19.384 5.74722 19.248C5.70522 19.108 5.60922 18.998 5.41922 18.774L5.24523 18.572C4.57523 17.788 4.23922 17.396 4.35522 17.02C4.47322 16.642 4.96523 16.532 5.94922 16.308L6.20322 16.252C6.48322 16.188 6.62322 16.156 6.73522 16.072C6.84722 15.986 6.91922 15.856 7.06322 15.598L7.19322 15.364Z" fill="white"/>
</svg>
