<svg width="49" height="48" viewBox="0 0 49 48" fill="none" xmlns="http://www.w3.org/2000/svg">
<path fill-rule="evenodd" clip-rule="evenodd" d="M32.774 9.45551L36.434 13.1155C41.812 18.4955 44.5 21.1835 44.5 24.5235C44.5 27.8655 41.812 30.5535 36.434 35.9315C31.054 41.3115 28.366 43.9995 25.024 43.9995C21.684 43.9995 18.994 41.3115 13.616 35.9335L9.95598 32.2735C6.86598 29.1815 5.31998 27.6375 4.74598 25.6315C4.16998 23.6255 4.66198 21.4955 5.64598 17.2375L6.21198 14.7815C7.03798 11.1975 7.45198 9.40551 8.67798 8.17751C9.90598 6.95151 11.698 6.53751 15.282 5.71151L17.738 5.14351C21.998 4.16151 24.126 3.66951 26.132 4.24351C28.138 4.81951 29.684 6.36551 32.774 9.45551ZM22.792 28.6555C21.446 27.3115 21.456 25.3795 22.262 23.8495C22.0624 23.5613 21.9701 23.2123 22.0011 22.8631C22.0321 22.514 22.1844 22.1867 22.4315 21.9381C22.6787 21.6895 23.0051 21.5353 23.3541 21.5023C23.7031 21.4694 24.0526 21.5596 24.342 21.7575C25.022 21.3975 25.768 21.2055 26.512 21.2135C26.9098 21.2172 27.2899 21.3788 27.5685 21.6628C27.8472 21.9467 28.0017 22.3297 27.998 22.7275C27.9943 23.1253 27.8327 23.5054 27.5487 23.7841C27.2648 24.0628 26.8818 24.2172 26.484 24.2135C26.0209 24.2306 25.5832 24.4297 25.266 24.7675C24.492 25.5415 24.694 26.3175 24.912 26.5355C25.132 26.7535 25.906 26.9555 26.68 26.1815C28.248 24.6135 30.956 24.0935 32.69 25.8275C34.036 27.1735 34.026 29.1055 33.22 30.6355C33.4183 30.9238 33.5095 31.2723 33.478 31.6208C33.4465 31.9692 33.2941 32.2957 33.0473 32.5437C32.8005 32.7917 32.4748 32.9456 32.1264 32.9788C31.7781 33.012 31.4292 32.9224 31.14 32.7255C30.2424 33.2178 29.2014 33.3819 28.196 33.1895C27.8061 33.1094 27.464 32.8777 27.245 32.5454C27.0259 32.2131 26.9479 31.8074 27.028 31.4175C27.1081 31.0276 27.3398 30.6856 27.6721 30.4665C28.0044 30.2475 28.4101 30.1694 28.8 30.2495C29.154 30.3235 29.726 30.2075 30.216 29.7175C30.99 28.9415 30.788 28.1675 30.57 27.9495C30.35 27.7315 29.576 27.5295 28.802 28.3035C27.234 29.8715 24.526 30.3915 22.792 28.6555ZM20.54 20.5855C20.9114 20.214 21.2059 19.773 21.4069 19.2876C21.6078 18.8023 21.7112 18.2821 21.7111 17.7568C21.711 17.2315 21.6074 16.7114 21.4063 16.2261C21.2052 15.7408 20.9105 15.2999 20.539 14.9285C20.1675 14.5571 19.7264 14.2626 19.2411 14.0616C18.7557 13.8607 18.2356 13.7573 17.7103 13.7574C17.185 13.7575 16.6648 13.8611 16.1796 14.0622C15.6943 14.2633 15.2534 14.558 14.882 14.9295C14.1319 15.6798 13.7107 16.6973 13.7109 17.7582C13.7111 18.8191 14.1327 19.8365 14.883 20.5865C15.6333 21.3365 16.6508 21.7578 17.7117 21.7576C18.7726 21.7574 19.7899 21.3358 20.54 20.5855Z" fill="white"/>
</svg>
