<svg width="16" height="12" viewBox="0 0 16 12" fill="none" xmlns="http://www.w3.org/2000/svg">
<path fill-rule="evenodd" clip-rule="evenodd" d="M8.00233 3.10936C10.2182 3.10946 12.3494 3.96089 13.9553 5.48769C14.0763 5.60557 14.2696 5.60408 14.3887 5.48436L15.5447 4.31769C15.605 4.25697 15.6386 4.17472 15.6381 4.08914C15.6376 4.00356 15.603 3.9217 15.542 3.86169C11.3269 -0.177856 4.67709 -0.177856 0.461995 3.86169C0.400937 3.92166 0.366293 4.00349 0.36573 4.08907C0.365167 4.17465 0.398731 4.25693 0.458995 4.31769L1.61533 5.48436C1.73436 5.60426 1.9278 5.60575 2.04866 5.48769C3.65481 3.96079 5.78622 3.10935 8.00233 3.10936ZM8.00233 6.90503C9.21982 6.90495 10.3939 7.35748 11.2963 8.17469C11.4184 8.29067 11.6107 8.28816 11.7297 8.16903L12.8843 7.00236C12.9451 6.94116 12.9789 6.85815 12.978 6.77188C12.9771 6.68562 12.9417 6.6033 12.8797 6.54336C10.1315 3.98698 5.87553 3.98698 3.12733 6.54336C3.06525 6.6033 3.02983 6.68566 3.02902 6.77195C3.0282 6.85824 3.06206 6.94125 3.123 7.00236L4.27733 8.16903C4.39632 8.28816 4.5886 8.29067 4.71066 8.17469C5.61253 7.35802 6.78564 6.90553 8.00233 6.90503ZM10.3153 9.45884C10.3171 9.54535 10.2831 9.62875 10.2213 9.68936L8.224 11.705C8.16544 11.7643 8.08562 11.7976 8.00233 11.7976C7.91904 11.7976 7.83921 11.7643 7.78066 11.705L5.783 9.68936C5.72128 9.62871 5.68734 9.54528 5.68917 9.45877C5.691 9.37226 5.72844 9.29035 5.79266 9.23236C7.06823 8.15347 8.93642 8.15347 10.212 9.23236C10.2762 9.29039 10.3136 9.37234 10.3153 9.45884Z" fill="white"/>
</svg>
